<svg id="グループ_4910" data-name="グループ 4910" xmlns="http://www.w3.org/2000/svg" xmlns:xlink="http://www.w3.org/1999/xlink" width="223.526" height="81.262" viewBox="0 0 223.526 81.262">
  <defs>
    <clipPath id="clip-path">
      <rect id="長方形_673" data-name="長方形 673" width="223.526" height="81.262" fill="#2e1616"/>
    </clipPath>
  </defs>
  <g id="グループ_2836" data-name="グループ 2836" clip-path="url(#clip-path)">
    <path id="パス_9604" data-name="パス 9604" d="M197.351,76.792l.249.2c-.05.024-.079.051-.1.048a.521.521,0,0,0-.5.224c-.16.2-.34.389-.491.6a.927.927,0,0,0-.132.345.752.752,0,0,1-.259.5c-.043.032-.1.094-.094.133.038.235-.208.421-.1.674.029.066-.04.2-.1.273a.459.459,0,0,0-.1.443.384.384,0,0,1-.176.443c-.2.117-.215.3-.255.487-.014.065.015.155-.02.2a1.314,1.314,0,0,0-.273.773,5.619,5.619,0,0,1-.2.851,2.175,2.175,0,0,1-.221.7,1.581,1.581,0,0,0-.1.513c-.054.276-.1.552-.169.825-.057.237-.136.469-.2.7a2.28,2.28,0,0,0-.054.3c-.017.132,0,.278-.173.333-.033.01-.063.066-.072.106-.066.285-.13.572-.186.859-.06.31-.1.622-.165.931a.457.457,0,0,1-.117.235.36.36,0,0,0-.1.292,2.148,2.148,0,0,1-.17.532c-.032.094-.106.2-.086.28a2.282,2.282,0,0,1-.173,1.345,2.129,2.129,0,0,0-.1.6,1.224,1.224,0,0,1-.163.545,1.234,1.234,0,0,0-.151.544,1.467,1.467,0,0,1-.193.606.922.922,0,0,0-.127.406,1.163,1.163,0,0,1-.174.673c-.04.051-.029.149-.028.224a2.1,2.1,0,0,1,.014.372c-.09.5-.2.989-.3,1.484a.737.737,0,0,1-.057.229,2.806,2.806,0,0,0-.136,1.973c.014.1.029.2.047.322a.6.6,0,0,0,.188-.079,1.122,1.122,0,0,0,.207-.265,16.031,16.031,0,0,1,1.324-1.61c.12-.172.271-.361.566-.225.172.08.416-.181.351-.419-.1-.374-.022-.6.345-.746a.37.37,0,0,0,.172-.242,3.737,3.737,0,0,1,.5-.959.864.864,0,0,1,.712-.441.443.443,0,0,0,.372-.244,4.111,4.111,0,0,0,.509-1.165,1.958,1.958,0,0,1,.53-.99.619.619,0,0,1,.395-.162.378.378,0,0,0,.326-.185c.091-.11.235-.176.308-.292.151-.018.3-.038.454-.05a.668.668,0,0,1,.158.024c.075.013.163.059.222.035.236-.1.368.034.477.2a.984.984,0,0,1,.185,1.068c-.015.029-.04.077-.028.094.14.206.029.432.055.646a1.188,1.188,0,0,1-.006.189c-.005.142-.02.283-.014.424a2.3,2.3,0,0,1,.038.564,3.513,3.513,0,0,0-.053.7,1.407,1.407,0,0,1-.111.591,1.362,1.362,0,0,0-.026.5c-.005.168-.014.337-.018.505,0,.146,0,.293,0,.439.007.282.024.564.025.845s-.02.586-.02.88a.514.514,0,0,0,.053.3.737.737,0,0,1,.113.551,3.826,3.826,0,0,0,.214,1.423c.059.184.181.344.138.553.241.254.349.63.711.774a.361.361,0,0,1,.147.08c.311.379.718.26,1.1.19a1.8,1.8,0,0,0,.867-.338.669.669,0,0,1,.472-.123,4.406,4.406,0,0,0,1.068-.164c.1-.009.19-.147.279-.231.065-.062.11-.173.183-.192.288-.077.444-.326.667-.485a1,1,0,0,0,.329-1.235,2.426,2.426,0,0,1-.163-1.461,8.074,8.074,0,0,1,.437-1.519,3.246,3.246,0,0,1,.444-.655,1.111,1.111,0,0,0,.275-.706.468.468,0,0,1,.043-.26c.166-.2.155-.47.278-.694a6.273,6.273,0,0,1,.527-1c.2-.25.307-.576.5-.829a3.541,3.541,0,0,1,.739-.731.813.813,0,0,0,.376-.447.984.984,0,0,1,.372-.505,8.469,8.469,0,0,0,.628-.616c.179-.186.338-.392.523-.571a.486.486,0,0,1,.292-.129,1.5,1.5,0,0,1,.842.189.331.331,0,0,0,.153.059,2.207,2.207,0,0,1,1.154.29,1.094,1.094,0,0,0,.363.053c.264.042.557-.072.79.12.4.332.882.6,1.078,1.123.038.1.1.26.05.317-.134.169-.086.3,0,.46a.787.787,0,0,1-.049.661,4.415,4.415,0,0,0-.177,1.669c0,.162-.037.324-.047.487a2.025,2.025,0,0,0,.358,1.128,3.15,3.15,0,0,0,.454.61,1.679,1.679,0,0,0,.787.432,2.238,2.238,0,0,0,1.359-.108,1.093,1.093,0,0,1,.759.024c.115.044.235.077.353.112.2.062.386.146.392.455-.187.17-.4.369-.618.561a1.8,1.8,0,0,1-.682.321c-.255.083-.571-.007-.778.232a.114.114,0,0,1-.1.012c-.342-.1-.7-.107-1.049-.177-.275-.056-.558-.071-.837-.105a.855.855,0,0,1-.642-.391,6.478,6.478,0,0,0-.848-.864c-.08-.09-.179-.163-.259-.253a.244.244,0,0,0-.357-.064,1.426,1.426,0,0,0-.577.6,3.457,3.457,0,0,1-.76.924,4.645,4.645,0,0,0-.609.761,2.548,2.548,0,0,1-.638.778.748.748,0,0,0-.184.231,2.573,2.573,0,0,1-.963,1.1,1.773,1.773,0,0,0-.765.6c-.085.145-.262.1-.409.09-.178-.007-.357,0-.535-.009a.587.587,0,0,1-.272-.078,1.144,1.144,0,0,0-1.261-.11,3.162,3.162,0,0,0-.857.577,1.92,1.92,0,0,1-.628.3,2.441,2.441,0,0,0-.779.491,1.267,1.267,0,0,1-.59.307,4.081,4.081,0,0,0-.906.477,3.3,3.3,0,0,1-1.2.314.828.828,0,0,1-.714-.19,1.059,1.059,0,0,0-.547-.157.953.953,0,0,1-.517-.234,7.354,7.354,0,0,1-.817-.787,3.782,3.782,0,0,1-.469-.8c-.081-.17-.217-.293-.292-.477a3.68,3.68,0,0,1-.312-1.023c0-.044-.007-.1-.035-.128-.2-.185-.161-.426-.184-.661-.038-.38-.116-.756-.175-1.135-.023-.144-.043-.289-.062-.434-.035-.266-.076-.532-.1-.8a1.5,1.5,0,0,1,.025-.337c.056-.415.13-.828.169-1.244a1.281,1.281,0,0,0-.123-.653,1.051,1.051,0,0,0-.921.6.3.3,0,0,1-.076.111,3.04,3.04,0,0,0-.706.893,8.288,8.288,0,0,0-.506.693,5.181,5.181,0,0,1-.433.576c-.136.2-.314.382-.455.584-.121.174-.214.367-.321.551-.034.057-.077.109-.112.165q-.141.225-.28.453c-.011.019-.01.052-.025.062-.319.2-.335.578-.526.853a2.143,2.143,0,0,1-.443.5.852.852,0,0,0-.4.641,3.737,3.737,0,0,1-.619,1.616,12.974,12.974,0,0,1-.772,1.327,2.022,2.022,0,0,0-.179.844c-.029.175-.084.345-.123.518-.1.428-.194.856-.283,1.286-.028.133-.029.262-.162.355-.064.044-.085.151-.125.229a1.272,1.272,0,0,1-.139.262,8.347,8.347,0,0,1-.621.664.735.735,0,0,1-1.071-.129,1.562,1.562,0,0,1-.423-1.036,3.008,3.008,0,0,1,.122-.963,2.884,2.884,0,0,0,.158-1.436,2.3,2.3,0,0,1,.151-1.1,2.339,2.339,0,0,0,.188-1.181.589.589,0,0,1,.012-.168c.033-.3.08-.6.095-.907a2.117,2.117,0,0,1,.174-.785,5.608,5.608,0,0,0,.233-.8c0-.011.008-.027,0-.033-.2-.261-.017-.479.066-.716a2.46,2.46,0,0,0,.047-.437c.031-.2.073-.4.112-.594.006-.033.042-.075.032-.093-.151-.261.034-.521,0-.788a1.2,1.2,0,0,1,.1-.625,2.593,2.593,0,0,0,.145-.652,1.355,1.355,0,0,1,.217-.553,1.131,1.131,0,0,0,.161-.679,3.6,3.6,0,0,1,.205-1.122.578.578,0,0,0,.038-.23,2.035,2.035,0,0,1,.2-1.188c.2-.473.229-.983.428-1.447a.609.609,0,0,0,.028-.233,1.471,1.471,0,0,1,.288-.784,1.414,1.414,0,0,0,.272-1.111.319.319,0,0,1,.1-.333.689.689,0,0,0,.206-.334,3.451,3.451,0,0,0,.146-1.1c-.016-.122,0-.249-.007-.373a.59.59,0,0,1,.187-.521.7.7,0,0,0,.2-.584.807.807,0,0,1,.327-.709.353.353,0,0,0,.126-.446.748.748,0,0,1-.008-.654c.033-.06,0-.155.006-.233a1.526,1.526,0,0,1,.049-.332c.111-.34.243-.673.349-1.015a1.447,1.447,0,0,0,.057-.433,2.367,2.367,0,0,1,.4-1.271,2.31,2.31,0,0,0,.155-.3c.172-.4.357-.8.5-1.215a1.4,1.4,0,0,0,.048-.6,1.589,1.589,0,0,1,.195-1.073,1.681,1.681,0,0,0,.14-.551,4.388,4.388,0,0,1,.135-.727,7.631,7.631,0,0,1,.42-.77,4.363,4.363,0,0,0,.2-.459c.033-.084.027-.192.078-.258a1.2,1.2,0,0,0,.184-.775c.007-.422.19-.55.558-.357a8.767,8.767,0,0,1,.87.578c.223.154.142.413.2.622a7.222,7.222,0,0,0,.324,1.168,1.232,1.232,0,0,1,.11.384.239.239,0,0,1-.234.3m14.582,15.46c-.257.129-.5.239-.73.373a.6.6,0,0,1-.343.1.359.359,0,0,0-.235.162c-.185.265-.354.54-.525.814-.142.228-.278.46-.414.692a13.311,13.311,0,0,0-.89,1.6,3.926,3.926,0,0,1-.614,1.268c-.211.227-.184.524-.239.8a2.534,2.534,0,0,0-.027.432c0,.167.013.336-.008.5-.038.293.051.431.336.474a1.186,1.186,0,0,0,1-.519,3.009,3.009,0,0,1,.772-.972,2.207,2.207,0,0,0,.429-.545,1.129,1.129,0,0,1,.074-.112c.125-.2.249-.4.375-.6.07-.112.141-.224.215-.333.177-.259.353-.519.535-.775a1.6,1.6,0,0,1,.231-.274c.167-.149.355-.275.519-.428a4.609,4.609,0,0,0,.533-.563,1.285,1.285,0,0,0-.113-1.224c-.1-.128-.166-.287-.262-.423a1.5,1.5,0,0,0-.3-.347.922.922,0,0,0-.316-.1m-14.354,1.943c.076.155.032.32.237.407l.26-.439-.5.032" transform="translate(-124.689 -48.887)" fill="#2e1616"/>
    <path id="パス_9605" data-name="パス 9605" d="M10.091,86c-.075.17-.2.25-.388.134A.549.549,0,0,1,9,86.424a.61.61,0,0,0-.6.077,1.733,1.733,0,0,1-.424.184c-.052.022-.125.037-.148.078-.19.343-.55.219-.83.31-.117.038-.239.061-.358.091-.033.008-.078.037-.1.025-.314-.217-.588.071-.885.086s-.517.295-.679.566a1.32,1.32,0,0,1-.2.256c-.23.229-.467.451-.7.674l.13.219c-.133.009-.23.013-.326.022-.308.028-.619.043-.924.044a3.149,3.149,0,0,0-.787.13,2.364,2.364,0,0,1-.732.021.515.515,0,0,1-.3-.143.758.758,0,0,0-.494-.191c-.2-.024-.4-.061-.608-.093a3.775,3.775,0,0,1,.023-1.129,2.806,2.806,0,0,1,1.386-.343,1,1,0,0,0,.648-.25,3.336,3.336,0,0,1,1.041-.466,2.038,2.038,0,0,0,.629-.237.6.6,0,0,1,.289-.086,1.379,1.379,0,0,0,.726-.256.4.4,0,0,1,.226-.043,2.083,2.083,0,0,0,.851-.192,4.386,4.386,0,0,1,.821-.191,1.9,1.9,0,0,0,.315-.1,4.664,4.664,0,0,1,.768-.327,1.317,1.317,0,0,1,.625.076.371.371,0,0,0,.313-.042,1.328,1.328,0,0,1,.7-.2,1.468,1.468,0,0,0,.516-.147,2.709,2.709,0,0,0,.465-.192,1.825,1.825,0,0,1,.92-.19,2.4,2.4,0,0,0,.972-.257,1.453,1.453,0,0,0,.2-.16,1.036,1.036,0,0,1,.3-.193c.357-.092.719-.165,1.082-.229a1.257,1.257,0,0,1,.346.043c.22-.155.451-.328.694-.484a.854.854,0,0,1,.291-.087,6.791,6.791,0,0,0,1.437-.372.828.828,0,0,1,.4.013.68.68,0,0,0,.45-.092,1.435,1.435,0,0,1,1.062-.247.441.441,0,0,0,.2-.029c.238-.062.473-.135.712-.191a1.737,1.737,0,0,0,.813-.309.182.182,0,0,1,.087-.048c.544-.061,1.049-.291,1.609-.322a1.865,1.865,0,0,0,1.095-.267.341.341,0,0,1,.189-.067,2.021,2.021,0,0,0,.937-.355,1.344,1.344,0,0,1,.9-.225,1.259,1.259,0,0,0,.807-.192.737.737,0,0,1,.474-.094,1.4,1.4,0,0,0,.891-.135,3.813,3.813,0,0,1,.426-.254,4.068,4.068,0,0,1,.806-.242,1.676,1.676,0,0,1,.57.065.525.525,0,0,0,.421-.054c.225-.146.458-.28.691-.415a.7.7,0,0,1,.215-.086c.288-.052.577-.1.867-.141s.562-.045.839-.091c.343-.057.683-.137,1.022-.213a.373.373,0,0,0,.181-.089,1.457,1.457,0,0,1,.8-.312c.248-.059.5-.1.746-.139s.516-.046.773-.073a1.321,1.321,0,0,0,.265-.056c.375-.12.755-.229,1.121-.374.333-.132.651-.3.972-.462a1.166,1.166,0,0,1,.728-.086.459.459,0,0,0,.408-.08.521.521,0,0,1,.516-.052.5.5,0,0,0,.257.039,3.79,3.79,0,0,0,.7-.217,2.461,2.461,0,0,1,1.152-.334.2.2,0,0,0,.068-.009c.361-.119.723-.241,1.085-.359.182-.06.366-.113.549-.169.011,0,.023,0,.034,0,.528-.16,1.057-.32,1.585-.483.386-.119.771-.244,1.156-.366a.29.29,0,0,0,.093-.04,3.616,3.616,0,0,1,1.52-.511,3.041,3.041,0,0,1,.876-.025,1.107,1.107,0,0,0,1.019-.352.282.282,0,0,1,.138-.1,3.835,3.835,0,0,1,1.136-.31.81.81,0,0,0,.293-.059.806.806,0,0,1,1.067.3,4.467,4.467,0,0,0,.451.394.5.5,0,0,0,.027.164c.142.293-.007.48-.233.62a1.555,1.555,0,0,1-1.193.328.485.485,0,0,0-.235.013c-.235.07-.464.166-.7.223a1.135,1.135,0,0,1-.433.011,1.051,1.051,0,0,0-.929.307.481.481,0,0,1-.365.125c-.349.013-.7.037-1.047.037-.166,0-.3.139-.488.065-.041-.016-.137.1-.206.159s-.112.144-.173.15c-.218.021-.4.151-.6.188a3.144,3.144,0,0,1-1.157.188.314.314,0,0,0-.256.067c-.2.239-.5.154-.733.27a.763.763,0,0,1-.3.046,1.73,1.73,0,0,0-.954.289.771.771,0,0,1-.279.076c-.032.007-.078-.021-.1-.006-.281.208-.607.078-.909.125a.609.609,0,0,0-.149.049c-.132.058-.26.128-.394.18a9.116,9.116,0,0,1-1.928.426.22.22,0,0,0-.067.008,2.873,2.873,0,0,1-1.307.285c-.061,0-.157.036-.173.079-.1.273-.356.268-.568.3a.725.725,0,0,0-.437.294.437.437,0,0,0-.012.507,1.941,1.941,0,0,1,.374.751c-.226.086-.438.184-.662.247a.528.528,0,0,0-.346.383c-.1.281-.163.576-.259.859-.042.124-.14.228-.191.35-.08.191-.117.4-.215.583a2.258,2.258,0,0,0-.179.656c-.049.243-.113.484-.142.73s-.023.5-.033.744a.321.321,0,0,1-.021.133.833.833,0,0,0-.025.642.875.875,0,0,1-.074.715,1.261,1.261,0,0,0-.182.611,2.83,2.83,0,0,0-.008,1.022c.014.047-.022.108-.03.163a3.731,3.731,0,0,0-.076.533,1.4,1.4,0,0,1-.3.859c.2.19.069.424.024.624a1.9,1.9,0,0,0-.028,1,.3.3,0,0,1-.041.249.829.829,0,0,0-.2.522,6.767,6.767,0,0,0-.061,1.261,2.957,2.957,0,0,1-.14,1.087,1.364,1.364,0,0,0-.143.879c.007.02.008.056,0,.065-.244.193-.023.5-.184.717a.039.039,0,0,0-.005.033,2.271,2.271,0,0,1-.094,1.064,8.189,8.189,0,0,1-.115,1.036,3.526,3.526,0,0,0-.179,1.422.741.741,0,0,1-.012.237c-.084.421-.185.839-.256,1.261a6.1,6.1,0,0,0-.045.7,3.837,3.837,0,0,1-.123,1.1,3.463,3.463,0,0,0-.119.595,1.471,1.471,0,0,0-.041.467c.026.148-.082.157-.166.212a2,2,0,0,1,.1.192.6.6,0,0,1,.005.578.3.3,0,0,0-.057.224c.13.3-.02.561-.093.838s-.112.572-.165.858c-.006.033-.024.07-.015.1a3.984,3.984,0,0,1-.049,1.631,5.831,5.831,0,0,1-.125.667.9.9,0,0,0,.013.533.456.456,0,0,1,.009.331,2.65,2.65,0,0,0-.147.964c-.061.5,0,1.008-.016,1.511a4.182,4.182,0,0,1-.1.733,1.322,1.322,0,0,0-.005.636.2.2,0,0,1-.023.162c-.25.235-.167.525-.13.8a1.347,1.347,0,0,1,0,.633.794.794,0,0,0,.009.4.92.92,0,0,1-.133.68.492.492,0,0,0-.05.317c.029.359.04.721.037,1.081,0,.341-.033.682-.051,1.023a.27.27,0,0,1-.01.1,1.188,1.188,0,0,0,.092,1.114c-.078.124-.2.252-.115.44a.221.221,0,0,1-.035.192c-.172.205-.1.412-.048.634a1.021,1.021,0,0,1-.013.709.36.36,0,0,0,0,.2,4.092,4.092,0,0,1-.051,1.34,1.294,1.294,0,0,0,.023.685,3.041,3.041,0,0,1,.028.763,2.905,2.905,0,0,0,.1.341,2.17,2.17,0,0,1,.065.5.657.657,0,0,0,.058.356.433.433,0,0,1,.005.218c0,.031-.05.067-.042.088.093.241-.061.428-.129.581.341.445.657.861.976,1.275a.653.653,0,0,0,.123.116.218.218,0,0,1,.057.325,2.48,2.48,0,0,0-.236.448.458.458,0,0,1-.5.325.574.574,0,0,1-.572-.289.736.736,0,0,0-.313-.334,1.014,1.014,0,0,1-.307-.35,1.939,1.939,0,0,1-.411-.721.294.294,0,0,0-.082-.146,1.451,1.451,0,0,1-.329-.87c-.008-.055,0-.13-.035-.162-.2-.2-.085-.422-.074-.641a5.208,5.208,0,0,0-.012-.532c-.02-.325-.036-.652-.073-.975-.025-.22-.11-.434-.119-.653s.063-.415.074-.623c.009-.165-.027-.332-.033-.5-.016-.361-.031-.722-.037-1.083a7.614,7.614,0,0,1,.015-1.182,5,5,0,0,0,.075-.94,4.568,4.568,0,0,1,.1-1.033,1.506,1.506,0,0,0,.016-.54,3.115,3.115,0,0,1,.109-1.139,2.9,2.9,0,0,0,.013-.808,10.879,10.879,0,0,1-.012-1.185c0-.192,0-.385.014-.577s.052-.377.08-.565a.8.8,0,0,0,.039-.263,2.366,2.366,0,0,1,.08-1.071.379.379,0,0,0,.021-.166.76.76,0,0,1,.073-.554,1.189,1.189,0,0,0,.055-.463c.015-.328.019-.656.035-.984.007-.146.037-.291.05-.438.018-.189.032-.378.043-.567,0-.066-.033-.155,0-.2.159-.213.077-.43.038-.65a2.152,2.152,0,0,1,.121-.933c.011-.043.056-.09.046-.123a3.271,3.271,0,0,1-.029-1,1.347,1.347,0,0,1,.018-.364,4.412,4.412,0,0,0,.124-.9,7.048,7.048,0,0,1,.16-1.635,1.511,1.511,0,0,0,.07-.636,5.687,5.687,0,0,1,.139-1.47c.041-.3.054-.608.1-.909a.7.7,0,0,1,.134-.332.614.614,0,0,0,.1-.666A.657.657,0,0,1,31,99.535c.079-.327.158-.655.232-.983a1.485,1.485,0,0,0,.059-.366,5.362,5.362,0,0,1,.26-1.77c.023-.075.082-.14.1-.215a1.042,1.042,0,0,0,.056-.456,2.226,2.226,0,0,1-.01-.841c.02-.236.023-.474.039-.71.01-.134.033-.267.051-.4a2.342,2.342,0,0,0,.048-.367,2.749,2.749,0,0,1,.064-.387,2.7,2.7,0,0,0,.087-.825.924.924,0,0,1,.023-.463,3.026,3.026,0,0,1,.388-1.008.474.474,0,0,0,.05-.354,4.036,4.036,0,0,1,.119-1.971,1.174,1.174,0,0,0,.016-.2c.027-.247.059-.493.079-.741.016-.2.022-.407.022-.611a.962.962,0,0,1,.141-.708c.074-.087.048-.259.064-.392.026-.224.049-.448.075-.672.012-.112.028-.224.039-.336a1.925,1.925,0,0,1,.362-.992c.078-.1.114-.224.03-.309-.25-.252-.152-.553-.129-.831.042-.506.123-1.009.193-1.513a1.924,1.924,0,0,1,.089-.359.391.391,0,0,0-.343-.558c-.235-.018-.471-.02-.706-.017a2.525,2.525,0,0,0-.447.1c-.336.064-.628.242-.96.3-.176.03-.346.089-.522.113a.823.823,0,0,1-.4-.009.343.343,0,0,0-.4.083.718.718,0,0,1-.513.223,1.181,1.181,0,0,0-.322.1,3.611,3.611,0,0,1-.582.151,3.284,3.284,0,0,0-1.009.255,1.9,1.9,0,0,1-.552.14.868.868,0,0,0-.4.153,1.173,1.173,0,0,1-.405.135c-.331.07-.692,0-.981.258-.068.061-.206.043-.312.058s-.24-.005-.323.049a.774.774,0,0,1-.587.088.523.523,0,0,0-.38.066,1.729,1.729,0,0,1-1.077.334,1.553,1.553,0,0,0-.521.054.2.2,0,0,0-.1.032,1.4,1.4,0,0,1-.989.221.641.641,0,0,0-.446.121.384.384,0,0,1-.277.06,1.257,1.257,0,0,0-.787.133,1.027,1.027,0,0,1-.387.08,1.9,1.9,0,0,0-.858.216,1.539,1.539,0,0,1-1.121.3.212.212,0,0,0-.164.013c-.227.22-.543.2-.807.309a.974.974,0,0,0-.23.132,1.289,1.289,0,0,1-.843.3,1.038,1.038,0,0,0-.678.17.323.323,0,0,1-.255.046c-.4-.124-.663.16-.969.313-.058.029-.1.1-.162.11-.34.072-.681.142-1.024.191a.425.425,0,0,0-.281.154c-.1.107-.195.328-.4.115-.005-.006-.043.014-.061.028s-.044.065-.069.068c-.252.025-.5.044-.808.068" transform="translate(0 -48.873)" fill="#2e1616"/>
    <path id="パス_9606" data-name="パス 9606" d="M430.641,78.642c-.155-.333.046-.577.2-.783a1.6,1.6,0,0,0,.29-.675,1.364,1.364,0,0,1,.3-.593.959.959,0,0,0,.3-.659c-.02-.279.231-.424.343-.639s.315-.376.3-.647a.22.22,0,0,1,.051-.121c.241-.346.489-.689.725-1.038a2.389,2.389,0,0,0,.16-.336,10.322,10.322,0,0,0,.685-1.115c.056-.171.292-.274.393-.44.179-.292.433-.567.353-.958-.006-.032-.014-.077,0-.1.195-.242.238-.583.5-.779.078-.059.192-.068.274-.124.258-.175.508-.362.714-.51L436.1,67.9l.275-.064a.723.723,0,0,1,.248-.609c.32-.387.6-.811.891-1.219-.015-.274.283-.425.276-.7,0-.027.036-.054.056-.081a10.188,10.188,0,0,0,.87-1.141c.294-.083.343-.328.421-.578a3.058,3.058,0,0,1,.33-.619.322.322,0,0,1,.171-.145c.118-.028.179-.116.266-.173a.384.384,0,0,0,.152-.542c.091-.259.16-.458.232-.655.023-.061.041-.154.085-.171.193-.076.216-.253.264-.409a.415.415,0,0,1,.624-.267,7.282,7.282,0,0,1,.739.527.482.482,0,0,1,.1.6.674.674,0,0,0-.035.215,2.879,2.879,0,0,1-.088.655,4.966,4.966,0,0,1-.443.858.768.768,0,0,0-.151.473.672.672,0,0,1-.166.5c-.329.413-.65.833-.967,1.255a2.784,2.784,0,0,0-.247.4c-.2.379-.378.765-.574,1.143a2.516,2.516,0,0,1-.228.337,4.929,4.929,0,0,1-.372.476c-.166.173-.355.324-.533.486-.056.051-.134.1-.157.162a3.191,3.191,0,0,1-.593.847,2.473,2.473,0,0,0-.382.7,1.118,1.118,0,0,1-.349.478,2.018,2.018,0,0,0-.478.752.648.648,0,0,1-.044.127,6.18,6.18,0,0,0-.522.971c-.17.359-.389.7-.594,1.038a1.2,1.2,0,0,0-.271.641.209.209,0,0,1-.042.127,7.924,7.924,0,0,0-.662,1.113,2.6,2.6,0,0,1-.6.879c-.1.075-.1.269-.148.406a1.6,1.6,0,0,1-.21.491,1.944,1.944,0,0,0-.262.505q-.192.413-.4.819a3.248,3.248,0,0,1-.244.433.506.506,0,0,0-.014.488c.063.2.361.262.583.123a3.754,3.754,0,0,0,.516-.372.44.44,0,0,1,.632.053c.131.148.318.276.214.527-.171.127-.346.268-.532.391a1.214,1.214,0,0,1-.331.15.938.938,0,0,0-.641.4c-.053.092-.2.131-.294.2-.342.247-.81.294-1.067.68a1.431,1.431,0,0,1-.259.216,3.963,3.963,0,0,0-.877.966c-.049.087-.072.188-.115.279-.058.122-.095.279-.192.353a1.635,1.635,0,0,0-.455.74,7,7,0,0,0-.4.929c-.156.569-.622.96-.81,1.507-.114.329-.27.644-.411.964a1.5,1.5,0,0,1-.123.2.935.935,0,0,0-.144.228,6.505,6.505,0,0,1-.58,1.245c-.171.338-.251.721-.4,1.073-.117.279-.2.568-.311.848a2.208,2.208,0,0,1-.367.48c-.048.061-.127.125-.129.191a4.517,4.517,0,0,1-.5,1.38c-.234.641-.525,1.261-.725,1.917-.058.191-.2.356-.259.547a4.864,4.864,0,0,1-.492,1.3c-.033.049-.015.131-.037.191-.059.167-.126.331-.192.5-.037.093-.077.185-.115.278-.051.125-.1.251-.15.377-.065.167-.125.336-.192.5a4.417,4.417,0,0,0-.178.427c-.061.217-.1.44-.141.661-.016.089-.007.183-.027.27-.087.4-.054.47.27.693a.875.875,0,0,1,.27.286.458.458,0,0,1-.131.6.524.524,0,0,0-.252.521c.072.309-.132.5-.256.721a2.976,2.976,0,0,0-.413,1c-.041.269-.026.619-.344.8a.28.28,0,0,0-.108.169,1.539,1.539,0,0,1-.782.886.874.874,0,0,1-.6.25.856.856,0,0,1-.819-.589,2.476,2.476,0,0,0-.163-.315,1.986,1.986,0,0,1-.183-.708,3.738,3.738,0,0,1,.054-.879,1.188,1.188,0,0,1,.23-.475.39.39,0,0,0,.1-.336.493.493,0,0,1,.181-.544.614.614,0,0,0,.137-.228c.077-.151.059-.348.291-.42.074-.023.118-.236.125-.364a.994.994,0,0,1,.172-.637.72.72,0,0,0,.076-.258c.021-.076.018-.188.068-.223.249-.174.169-.474.287-.7a.323.323,0,0,0,.006-.2.772.772,0,0,1,.193-.652,1.4,1.4,0,0,0,.3-.621,9.133,9.133,0,0,1,.293-1c.006-.021.015-.05.032-.059.29-.156.251-.488.381-.729.206-.381.354-.792.524-1.192.03-.072.038-.152.068-.224.052-.124.081-.285.176-.359a.921.921,0,0,0,.383-.644c.037-.284.1-.565.154-.848.016-.088,0-.2.051-.261.094-.125.168-.232.086-.394a.179.179,0,0,1,.046-.15,1.95,1.95,0,0,0,.421-.9,1.754,1.754,0,0,1,.287-.49,1.129,1.129,0,0,0,.188-.462,1.9,1.9,0,0,1,.374-.886,8.9,8.9,0,0,0,.808-1.356,4.6,4.6,0,0,0,.137-.624,3.081,3.081,0,0,1,.412-.927c.114-.151.176-.374.29-.553.094-.148.248-.266.258-.464a.164.164,0,0,1,.082-.1.517.517,0,0,0,.239-.378,6.158,6.158,0,0,1,.347-.946,2.136,2.136,0,0,1,.286-.445.981.981,0,0,0,.185-.639.407.407,0,0,0-.316-.417c-.253-.085-.479-.268-.772-.2a1.717,1.717,0,0,0-.664-.23c-.056-.015-.1-.084-.146-.13s-.072-.1-.115-.112a1.721,1.721,0,0,1-.9-.54.754.754,0,0,0-.211-.1c-.051-.023-.133-.026-.152-.063-.193-.383-.644-.463-.9-.773-.034-.042-.1-.061-.125-.106a4.608,4.608,0,0,0-1.024-1.127,1,1,0,0,1-.137-.19c-.029-.048-.036-.11-.069-.154-.212-.284-.419-.574-.647-.845a2.778,2.778,0,0,1-.435-.588,3.427,3.427,0,0,0-.278-.425.621.621,0,0,1-.176-.4.925.925,0,0,0-.274-.521c-.129-.15-.267-.275-.23-.495a.13.13,0,0,0-.014-.1,1.136,1.136,0,0,1-.254-.565,1.8,1.8,0,0,0-.261-.539,3.962,3.962,0,0,1-.375-1.081c-.089-.266-.135-.546-.2-.82a.3.3,0,0,0-.051-.125c-.152-.175-.106-.372-.092-.577a5.366,5.366,0,0,0-.034-.695c-.014-.214-.033-.428-.047-.643s.111-.365.327-.317a9.315,9.315,0,0,1,1.136.328.548.548,0,0,1,.342.4,2.579,2.579,0,0,0,.121.274c.039.1.123.235.09.312a1.251,1.251,0,0,0,.031.709,6.278,6.278,0,0,0,.187.785,8.1,8.1,0,0,1,.214.8,3.841,3.841,0,0,0,.459,1.251c.165.3.327.611.5.91.134.231.278.457.427.678.223.332.441.669.687.984.268.343.563.664.849.994.225.261.443.529.682.778a5.358,5.358,0,0,0,.513.436,7.744,7.744,0,0,1,.628.5,1.575,1.575,0,0,0,.668.373.4.4,0,0,1,.1.025,2.28,2.28,0,0,0,1.552.147,1.178,1.178,0,0,0,.871-.617,4.311,4.311,0,0,1,1.114-1.449" transform="translate(-278.22 -40.136)" fill="#2e1616"/>
    <path id="パス_9607" data-name="パス 9607" d="M340.962,87.766a.987.987,0,0,0,1.094-.325,10.076,10.076,0,0,1,1.345-1.257,4.234,4.234,0,0,0,.844-.713.693.693,0,0,1,.556-.214c.234.01.493-.024.685.21.08.1.257.117.39.169a.7.7,0,0,1,.448.325,4.189,4.189,0,0,0,.377.507.475.475,0,0,1,.01.515,1.107,1.107,0,0,0-.1.213.255.255,0,0,1-.246.2,1.289,1.289,0,0,1-.4.032,1.311,1.311,0,0,0-1.153.509,2.334,2.334,0,0,0-.25.277.538.538,0,0,1-.43.216.724.724,0,0,0-.715.46,2.113,2.113,0,0,1-.541.681,2.692,2.692,0,0,0-.407.478c-.267.4-.534.8-.813,1.191a2.535,2.535,0,0,1-.448.526,1.7,1.7,0,0,0-.511.888,1.23,1.23,0,0,0,.245,1.014.737.737,0,0,0,.684.34,1.383,1.383,0,0,1,.423.07,1.873,1.873,0,0,0,.366.047c.044,0,.1-.022.13,0,.341.265.726.016,1.082.1.085.019.2-.025.262.017a1.228,1.228,0,0,0,.624.11,7.058,7.058,0,0,1,.862.137,2.174,2.174,0,0,0,.9.039,3.473,3.473,0,0,1,.7,0,.914.914,0,0,0,.266.006,3.535,3.535,0,0,1,1.046-.049c.29,0,.58-.039.87-.06.326-.024.651-.062.977-.063a.545.545,0,0,1,.326.149.677.677,0,0,0,.461.174,2.415,2.415,0,0,0,1.251-.171.7.7,0,0,1,.493,0c.1.034.236.215.216.3-.048.2.07.319.162.481a1,1,0,0,1-.772.342,4.134,4.134,0,0,0-.537.057c-.415.037-.832.055-1.245.108a17.6,17.6,0,0,0-1.761.266.521.521,0,0,1-.2.039,4.91,4.91,0,0,0-1.146,0,3.237,3.237,0,0,0-1.032.121,2.153,2.153,0,0,1-1.184.006c-.066-.014-.146-.063-.194-.041-.333.154-.668-.038-1,.016a.588.588,0,0,1-.334-.038,1.218,1.218,0,0,0-.7-.055,1.342,1.342,0,0,1-.693-.1,1.744,1.744,0,0,0-.627-.128,1.541,1.541,0,0,1-1.345-.471.2.2,0,0,0-.084-.053c-.2-.076-.393-.15-.6-.23a.592.592,0,0,0-.353.583,2.034,2.034,0,0,1-.079.364c-.015.066-.06.141-.043.2a2.574,2.574,0,0,1-.066.933.95.95,0,0,1-.051.266.945.945,0,0,0,.385,1.253c.11.078.232.143.335.23a1.871,1.871,0,0,1,.206.235c-.124.186-.229.341-.331.5a.251.251,0,0,0-.058.115c.006.383-.219.519-.555.632a.938.938,0,0,1-1.009-.148.215.215,0,0,0-.091-.043c-.389-.085-.446-.434-.578-.724-.023-.05-.017-.131-.053-.153-.225-.138-.183-.366-.214-.572s-.064-.4-.113-.592a1.872,1.872,0,0,1,0-1c.009-.033.033-.065.03-.1-.051-.555.15-1.088.134-1.644a2.243,2.243,0,0,1,.178-.748,1.513,1.513,0,0,0,.126-.554,1.889,1.889,0,0,1,.093-.5,2.273,2.273,0,0,0,.155-1.03.154.154,0,0,1,.007-.1,1.86,1.86,0,0,0,.241-1.152c-.011-.1.107-.214.157-.324.163-.356.328-.712.479-1.074a1.23,1.23,0,0,0,.048-.326,4.462,4.462,0,0,1,.063-.535,5.148,5.148,0,0,0,.231-.823c.025-.387.163-.743.22-1.12a1.541,1.541,0,0,1,.385-.844.505.505,0,0,0,.074-.311c0-.192-.038-.386-.021-.575a3.19,3.19,0,0,1,.129-.514c.016-.063.062-.133.046-.187-.112-.385.143-.7.2-1.049a.227.227,0,0,1,.1-.129.546.546,0,0,0,.235-.585,2.99,2.99,0,0,1,.4-1.722,3.174,3.174,0,0,0,.222-.815,3.038,3.038,0,0,1,.152-.476,1.5,1.5,0,0,0,.2-.743,1.41,1.41,0,0,1,.481-1.079.582.582,0,0,1,.472-.064,1.739,1.739,0,0,1,.535.276.66.66,0,0,0,.4.144c.193,0,.264.079.195.252a2.724,2.724,0,0,0-.2.851.348.348,0,0,1-.1.174.8.8,0,0,0-.168.462,2.893,2.893,0,0,1-.219.631,3.654,3.654,0,0,0-.275,1.007,1.641,1.641,0,0,1-.061.33c-.143.492-.3.979-.432,1.474-.073.277-.1.567-.146.85a.785.785,0,0,1-.072.258,1.013,1.013,0,0,0-.106.451,7.385,7.385,0,0,1-.169.854,1.653,1.653,0,0,0-.069.33A1.886,1.886,0,0,1,341,87.485a.778.778,0,0,0-.042.28" transform="translate(-223.604 -51.816)" fill="#2e1616"/>
    <path id="パス_9608" data-name="パス 9608" d="M296.841,124.011a1.556,1.556,0,0,1-1.187-.412.575.575,0,0,0-.224-.148c-.549-.125-.774-.581-1.041-1A5.311,5.311,0,0,1,294.1,122c-.091-.179-.15-.373-.233-.556a2.073,2.073,0,0,1-.3-1.222,2.248,2.248,0,0,0-.039-.369c0-.149-.031-.282-.184-.325a.39.39,0,0,0-.441.073c-.125.143-.247.288-.372.431-.029.034-.057.077-.1.093a1.715,1.715,0,0,0-.967,1.225.3.3,0,0,1-.051.123,6.486,6.486,0,0,0-1.148,1.764c-.248.5-.464,1.021-.7,1.527a2.756,2.756,0,0,1-.3.486,6.652,6.652,0,0,0-.555,1.025,3.269,3.269,0,0,1-.849,1.038.961.961,0,0,1-.752.23c-.121-.02-.3-.092-.332-.186a12.543,12.543,0,0,0-.614-1.122.316.316,0,0,1-.044-.16c.035-.334.076-.668.118-1a3.189,3.189,0,0,0,.063-.469,3.116,3.116,0,0,1,.174-1.167c.033-.092.009-.2.036-.3.072-.254.081-.537.354-.7a.246.246,0,0,0,.052-.34.806.806,0,0,1,.176-1.044c.039-.037.045-.113.087-.143a.846.846,0,0,0,.295-.817,2.114,2.114,0,0,1,.217-.98,1.51,1.51,0,0,0,.1-.587.534.534,0,0,1,.206-.44,1.968,1.968,0,0,0,.237-.236.448.448,0,0,1,.631-.088,1.723,1.723,0,0,0,.435.241.563.563,0,0,1,.426.548,1.783,1.783,0,0,0,.266.717c.105.2.2.2.4.076a5.942,5.942,0,0,0,1.144-1.078c.221-.236.474-.441.71-.665a.485.485,0,0,0,.113-.162,2.624,2.624,0,0,1,.759-.939c.389-.338.8-.653,1.212-.963a.74.74,0,0,1,1.046.235c.1.172.19.311.43.323s.312.177.339.427a6.909,6.909,0,0,1-.142,1.753c-.02.13-.118.249-.136.379-.035.257-.034.519-.055.778a5.75,5.75,0,0,1-.1.939,1.549,1.549,0,0,0-.027.49,1.925,1.925,0,0,0,.764,1.37.645.645,0,0,0,.812.035,2.07,2.07,0,0,1,1.2-.4,5.441,5.441,0,0,0,1.3-.195,2.575,2.575,0,0,1,.609-.044.286.286,0,0,1,.182.068.669.669,0,0,1,.09.807c-.024.038-.045.089-.081.107-.259.13-.522.254-.784.377-.03.014-.075.007-.1.027-.315.3-.748.283-1.125.417a3.875,3.875,0,0,0-.76.337,1.388,1.388,0,0,1-.948.235" transform="translate(-189.919 -76.61)" fill="#2e1616"/>
    <path id="パス_9609" data-name="パス 9609" d="M539.606,79.8a.865.865,0,0,1,.854-.332c.056,0,.126.018.167-.008.34-.213.607-.037.847.174a.266.266,0,0,0,.36.043,2.708,2.708,0,0,0,.359-.187,1.01,1.01,0,0,1,.894-.291.293.293,0,0,0,.216-.06.734.734,0,0,1,.554-.1.245.245,0,0,1,.186.105.286.286,0,0,1-.054.214.32.32,0,0,1-.162.112,3.332,3.332,0,0,0-1.193.691.731.731,0,0,1-.459.186c-.312-.01-.495.192-.716.339-.082.054-.167.147-.252.149a2.429,2.429,0,0,0-.959.259.271.271,0,0,1-.133.02,2.294,2.294,0,0,0-1.016.221,1.63,1.63,0,0,1-.733.08,7.267,7.267,0,0,0-1.151-.03,1.89,1.89,0,0,1-.674-.163,3.088,3.088,0,0,1-.674-.275c-.249-.15-.511-.252-.761-.387a1.4,1.4,0,0,1-.4-.448.824.824,0,0,0-.949-.347,1.238,1.238,0,0,0-.445.4,3.286,3.286,0,0,1-.986.837,1.517,1.517,0,0,0-.572.5c-.077.122-.249.181-.37.278s-.214.2-.327.291-.257.175-.371.278c-.142.128-.253.293-.4.405a7.961,7.961,0,0,1-.678.421c-.038.023-.1.016-.127.043a5.322,5.322,0,0,1-1.1.641c-.039.022-.071.069-.111.075-.489.08-.977.178-1.47.22-.289.025-.461-.227-.631-.429-.05-.059-.083-.134-.132-.195-.144-.178-.355-.313-.31-.6.011-.069-.086-.153-.129-.234-.031-.059-.093-.146-.073-.18.169-.28,0-.566.03-.845a.1.1,0,0,0-.007-.033,1.009,1.009,0,0,1-.449-.814.622.622,0,0,1,.081-.415,2.787,2.787,0,0,0,.418-1.3,2.151,2.151,0,0,0-.061-.567.4.4,0,0,1,.018-.227c.116-.19.253-.369.382-.552l-.068-.182a.274.274,0,0,1,.032-.066c.134-.151.3-.286.261-.522a.084.084,0,0,1,.019-.064c.309-.3.357-.746.626-1.067.143-.171.262-.363.409-.53a.526.526,0,0,1,.753.016.7.7,0,0,0,.481.267,1.238,1.238,0,0,1,.8.53,2,2,0,0,0,.71.609.5.5,0,0,1,.312.55,1.754,1.754,0,0,1-.719.426.491.491,0,0,1-.389-.044.9.9,0,0,0-.274-.107c-.38-.1-.55.012-.661.406a.649.649,0,0,1-.1.166,1.357,1.357,0,0,0-.113.165c-.2.425-.426.842-.585,1.282a5.427,5.427,0,0,0-.166.931c-.026.155-.068.309-.08.465a1.656,1.656,0,0,0,0,.6c.042.136.216.232.334.348a7.886,7.886,0,0,0,.969-.475,14.924,14.924,0,0,0,1.336-1.02.843.843,0,0,1,.414-.2c.111-.021.223-.037.334-.054a.8.8,0,0,0,.617-.416c.1-.18.3-.3.336-.535a.184.184,0,0,1,.115-.112,1.343,1.343,0,0,0,.652-.515.762.762,0,0,1,.194-.186.814.814,0,0,0,.354-.439.769.769,0,0,1,.422-.457.532.532,0,0,0,.3-.7,2.016,2.016,0,0,1,.068-1,2.538,2.538,0,0,1,.638-1.171.466.466,0,0,0,.165-.35c-.016-.244.163-.361.3-.5a.253.253,0,0,1,.185-.054,1.554,1.554,0,0,1,1.35,1.07,1.453,1.453,0,0,1-.06,1.1,4.149,4.149,0,0,0-.319,1.542.743.743,0,0,1,0,.135,1.7,1.7,0,0,0,.436,1.391,1.15,1.15,0,0,0,.649.4,4.83,4.83,0,0,0,1.475.165,2.146,2.146,0,0,1,1.165.241" transform="translate(-348.547 -48.953)" fill="#2e1616"/>
    <path id="パス_9610" data-name="パス 9610" d="M491.967,81.418c.379.06.761.105,1.135.187a4.235,4.235,0,0,1,.666.238,4.1,4.1,0,0,1,.64.289,1.825,1.825,0,0,1,.5.431,2.265,2.265,0,0,0,.556.524.225.225,0,0,1,.1.122.916.916,0,0,0,.26.493.568.568,0,0,1,.155.433.534.534,0,0,0,.2.511,1.4,1.4,0,0,1,.232.662,2.632,2.632,0,0,1-.059.627c-.024.243.032.493.019.738a1.7,1.7,0,0,1-.231.96,3.906,3.906,0,0,0-.329.8,1.693,1.693,0,0,1-.147.325c-.152.224-.312.442-.482.652-.1.13-.233.239-.346.362-.245.269-.48.546-.732.809a.627.627,0,0,1-.3.186.616.616,0,0,0-.37.213c-.152.172-.321.324-.464.512a1.4,1.4,0,0,1-.689.4,3.121,3.121,0,0,0-.805.227.577.577,0,0,1-.291.082,5.915,5.915,0,0,1-1.213.014.814.814,0,0,1-.389-.17.459.459,0,0,0-.2-.121c-.265-.039-.4-.247-.554-.42a2.62,2.62,0,0,1-.271-.416.956.956,0,0,1-.116-.243c-.077-.294-.142-.59-.214-.886-.01-.042-.023-.1-.053-.12-.235-.158-.187-.4-.2-.629a1.161,1.161,0,0,0-.018-.3,1.371,1.371,0,0,1,.028-.889c.1-.311.174-.628.271-.939.043-.139.12-.266.175-.4s.068-.37.168-.419c.153-.076.046-.315.252-.314.021,0,.051-.072.062-.114a7.127,7.127,0,0,0,.183-.805,1.1,1.1,0,0,1,.662-.821c.2-.116.4-.232.6-.354a.219.219,0,0,0,.071-.112,4.2,4.2,0,0,1,.617-1.034,1.093,1.093,0,0,0,.165-.569c.02-.556.206-.748.756-.73m-1.176,4.918a2.116,2.116,0,0,0-.106.267c-.053.216-.088.435-.146.65a.468.468,0,0,1-.136.26.416.416,0,0,0-.157.355c-.033.268-.058.537-.091.805-.019.157-.036.3-.23.374a.4.4,0,0,0-.182.291,1.172,1.172,0,0,0,.065.428.438.438,0,0,0,.128.185c.047.044.15.052.169.1.107.273.37.241.551.224a.82.82,0,0,0,.59-.169,2.45,2.45,0,0,1,1.329-.757.518.518,0,0,0,.127-.047,1.029,1.029,0,0,0,.46-.43c.2-.343.439-.666.667-.994a.345.345,0,0,1,.153-.129.535.535,0,0,0,.348-.677.645.645,0,0,1,.154-.552.97.97,0,0,0,.15-.4,2.649,2.649,0,0,0-.026-.389.346.346,0,0,0-.435-.37,1.955,1.955,0,0,0-.425.2,1.028,1.028,0,0,1-1.2.028,1.755,1.755,0,0,0-.588-.246c-.224-.057-.283,0-.4.211s-.235.38-.353.571a.361.361,0,0,1-.418.21" transform="translate(-323.855 -54.043)" fill="#2e1616"/>
    <path id="パス_9611" data-name="パス 9611" d="M636.967,25.333c-.016-.144-.037-.285-.045-.427a.3.3,0,0,1,.04-.154,1,1,0,0,0,.1-.81.639.639,0,0,1,.015-.3c.044-.2.1-.406.154-.61a.267.267,0,0,0,0-.135c-.161-.529.158-.945.34-1.387.052-.124.107-.192-.038-.263a2.824,2.824,0,0,0,.294-1.263c0-.359.059-.718.1-1.077a.34.34,0,0,1,.077-.141,5.174,5.174,0,0,0,.355-.5c.031-.056-.042-.167-.068-.258l.194-.551c.007-.021.027-.049.02-.063-.17-.325.039-.552.2-.794a.532.532,0,0,0,.057-.189c.009-.044-.015-.112.008-.132a.653.653,0,0,0,.185-.694.336.336,0,0,1,.08-.219,1.414,1.414,0,0,0,.244-.6,2.6,2.6,0,0,1,.4-.734,1.546,1.546,0,0,1,.124-.2.793.793,0,0,0,.167-.725.3.3,0,0,1,.057-.215,2.04,2.04,0,0,0,.273-.71,2.216,2.216,0,0,1,.44-.9.724.724,0,0,0,.184-.586.927.927,0,0,1,.15-.529,2.13,2.13,0,0,0,.219-1.269.885.885,0,0,1,.206-.719.171.171,0,0,0,.05-.121c-.023-.209.115-.36.184-.535.082-.21.186-.413.25-.627a1.321,1.321,0,0,1,.293-.592c.059-.061.052-.188.073-.285.078-.374.153-.748.233-1.122.009-.041.029-.1.06-.113.33-.155.352-.486.425-.773s.047-.584.261-.817c-.1-.3.238-.429.283-.686a6.468,6.468,0,0,1,.254-.721,5.8,5.8,0,0,0,.31-1.265.413.413,0,0,1,.253-.359,1.065,1.065,0,0,1,.6-.161c.218.007.414.006.457.281,0,.021.017.054.032.057.246.053.294.344.5.427.318.132.309.4.289.649-.026.33-.146.645-.2.973a2.688,2.688,0,0,1-.251.587c-.141.317-.3.628-.411.956a.415.415,0,0,1-.17.262c-.085.053-.153.135-.238.189a.4.4,0,0,0-.217.45c.045.249-.179.4-.267.6-.039.089-.114.181-.11.268a2.155,2.155,0,0,1-.14.619c-.038.152-.048.31-.089.461a1.191,1.191,0,0,1-.173.465,2.29,2.29,0,0,0-.4,1.061c-.044.185-.244.381-.071.6-.132.186-.083.409-.13.609a1.679,1.679,0,0,1-.278.566c-.156.219-.357.4-.525.615a.378.378,0,0,0-.1.267c.086.32-.105.542-.247.78-.079.134-.194.245-.141.425a.191.191,0,0,1-.044.158.869.869,0,0,0-.2.628.357.357,0,0,1-.054.159,6.156,6.156,0,0,0-.464,1.151,3.577,3.577,0,0,1-.318.546.882.882,0,0,0-.137.436,1.3,1.3,0,0,1-.177.78,2.015,2.015,0,0,0-.178.429,1.426,1.426,0,0,1-.14.269,2.241,2.241,0,0,0-.262.573c-.1.29-.158.593-.262.878-.13.358-.344.685-.489,1.038-.115.279-.18.578-.27.868-.022.072-.058.14-.086.21a3.355,3.355,0,0,0-.148.4c-.078.323-.136.651-.217.972a1.722,1.722,0,0,1-.15.3.519.519,0,0,0-.08.213,1.053,1.053,0,0,1-.2.634.276.276,0,0,0-.048.191.469.469,0,0,1-.133.451.817.817,0,0,0-.089.517.633.633,0,0,1-.194.55c-.069.064-.091.175-.151.254-.174.23-.267.552-.626.583-.019,0-.04-.015-.055-.021" transform="translate(-422.778 0)" fill="#2e1616"/>
    <path id="パス_9612" data-name="パス 9612" d="M631.386,104.368l.089-.215c-.014-.029-.02-.063-.034-.067-.262-.075-.207-.352-.329-.515a.072.072,0,0,1,.011-.064,2.929,2.929,0,0,1,.468-.519.649.649,0,0,1,.459-.035,3.383,3.383,0,0,1,1.231.5c.257.181.531.333.779.519a1.088,1.088,0,0,1,.3.5c.05.138-.158.382-.325.472a4,4,0,0,0-.452.28.628.628,0,0,1-.545.1,1.593,1.593,0,0,0-.33-.056,1.882,1.882,0,0,1-1.1-.524.105.105,0,0,1-.038-.087c.052-.159-.074-.216-.184-.29" transform="translate(-418.919 -68.322)" fill="#2e1616"/>
  </g>
</svg>
